# xmcd
#
# Track frame offsets:
#	150
#	14872
#	27901
#	42973
#	53363
#	70279
#	84290
#	97393
#	116363
#	133368
#	152157
#	170926
#	199367
#
# Disc length: 2883 seconds
#
# Revision: 1
# Processed by: cddbd v1.5.1PL0 Copyright (c) Steve Scherf et al.
# Submitted via: EasyCDDAExtractor 8.1.4.1
#
DISCID=bd0b410d
DTITLE=Various Artist - Beginners Guide To Brazil [CD1 Classic Brazil)
DYEAR=2005
DGENRE=Samba
TTITLE0=Sergio Mendes and Brasil '77 - Zanzibar
TTITLE1=Ana Mazzotti - Agora Ou Nunca Mais
TTITLE2=Deodato - Nana
TTITLE3=Joao Donato With Palmyra and Levita - A Ra
TTITLE4=Edison E Tita - Carioca Mexmo
TTITLE5=Bebeto - Batuque
TTITLE6=Emilio Santiago - Bananeira
TTITLE7=Wanderlea - Maria Joao
TTITLE8=Tom Ze - Chamega
TTITLE9=Banda Favela - Neguinho
TTITLE10=Joyce - Azul Bahia
TTITLE11=Dom Um Romao - Afro Blue
TTITLE12=Baden Powell - O Astronauta
EXTD=
EXTT0=
EXTT1=
EXTT2=
EXTT3=
EXTT4=
EXTT5=
EXTT6=
EXTT7=
EXTT8=
EXTT9=
EXTT10=
EXTT11=
EXTT12=
PLAYORDER=
